<svg id="Layer_1" data-name="Layer 1" xmlns="http://www.w3.org/2000/svg" viewBox="0 0 415.94 132.11" width="416" height="132"><defs><style>.cls-1{fill:#505362}.cls-2{fill:#f58767}</style></defs><path class="cls-1" d="M8 104.42V125h12.8a19.24 19.24 0 0 0 5.88-.79 11 11 0 0 0 4-2.2 8.62 8.62 0 0 0 2.34-3.39 12.19 12.19 0 0 0 .74-4.31 8.89 8.89 0 0 0-3.24-7.25q-3.24-2.65-9.81-2.66zm0-5.7h10.58a20.37 20.37 0 0 0 5.86-.72 12 12 0 0 0 4.11-2.06A8.11 8.11 0 0 0 31 92.72a10.63 10.63 0 0 0 .78-4.11c0-3.47-1-6-3.13-7.64s-5.34-2.43-9.75-2.43H8zm-8 32.66V72.22h18.86a36.36 36.36 0 0 1 9.4 1.07 18.41 18.41 0 0 1 6.48 3.06 12 12 0 0 1 3.75 4.85 16.25 16.25 0 0 1 1.22 6.46 13.21 13.21 0 0 1-.71 4.21 12.26 12.26 0 0 1-2 3.76 14.91 14.91 0 0 1-3.47 3.09 19.34 19.34 0 0 1-4.92 2.28q6.48 1.29 9.78 4.67a12.21 12.21 0 0 1 3.3 8.91 16.68 16.68 0 0 1-1.38 6.86 14.58 14.58 0 0 1-4.05 5.32 18.66 18.66 0 0 1-6.52 3.45 29.31 29.31 0 0 1-8.81 1.22zM53.09 70.57h7.35v60.81h-7.35zM165.2 131.38V89.56h4.38a1.87 1.87 0 0 1 2 1.53l.54 4.29a21.67 21.67 0 0 1 5.18-4.67 12.18 12.18 0 0 1 6.7-1.81 9.9 9.9 0 0 1 6.87 2.35 13.23 13.23 0 0 1 3.78 6.36 12.93 12.93 0 0 1 2.29-3.92 13.34 13.34 0 0 1 3.2-2.73 13.69 13.69 0 0 1 3.77-1.57 16.91 16.91 0 0 1 4.07-.49 15.49 15.49 0 0 1 5.88 1 11.66 11.66 0 0 1 4.33 3.1 13.58 13.58 0 0 1 2.74 5 21.84 21.84 0 0 1 .95 6.75v26.63h-7.34v-26.63c0-3.27-.72-5.76-2.15-7.45a7.71 7.71 0 0 0-6.23-2.54 9.27 9.27 0 0 0-3.45.64 8.22 8.22 0 0 0-2.87 1.88 8.66 8.66 0 0 0-2 3.11 12.19 12.19 0 0 0-.72 4.36v26.63h-7.35v-26.63c0-3.36-.68-5.86-2-7.51a7.2 7.2 0 0 0-5.91-2.48 9.29 9.29 0 0 0-5 1.47 16.44 16.44 0 0 0-4.28 4v31.17zM256.93 96.45a1.62 1.62 0 0 1-1.53.91 2.88 2.88 0 0 1-1.4-.45c-.52-.31-1.16-.64-1.92-1a17.78 17.78 0 0 0-2.7-1 13.2 13.2 0 0 0-3.72-.47 11.14 11.14 0 0 0-3.34.47 8.11 8.11 0 0 0-2.54 1.3 5.75 5.75 0 0 0-1.61 1.92 5.18 5.18 0 0 0-.56 2.38 4 4 0 0 0 .93 2.68A8 8 0 0 0 241 105a21.49 21.49 0 0 0 3.46 1.38c1.3.4 2.63.83 4 1.28s2.69 1 4 1.51a14.74 14.74 0 0 1 3.47 2.06 9 9 0 0 1 3.38 7.35 13.64 13.64 0 0 1-1 5.35 11.86 11.86 0 0 1-3.05 4.25 14.69 14.69 0 0 1-5 2.82 20.27 20.27 0 0 1-6.77 1 21.08 21.08 0 0 1-7.92-1.43 20 20 0 0 1-6-3.65l1.73-2.81a2.49 2.49 0 0 1 .79-.82 2.13 2.13 0 0 1 1.2-.29 2.72 2.72 0 0 1 1.56.58c.55.38 1.22.81 2 1.28a16.19 16.19 0 0 0 2.84 1.28 13.21 13.21 0 0 0 4.19.57 11.51 11.51 0 0 0 3.76-.55 8.05 8.05 0 0 0 2.68-1.51 5.82 5.82 0 0 0 1.59-2.19 6.69 6.69 0 0 0 .52-2.64 4.38 4.38 0 0 0-.93-2.87 7.85 7.85 0 0 0-2.46-1.94 19.7 19.7 0 0 0-3.48-1.4c-1.31-.4-2.65-.82-4-1.26a42.69 42.69 0 0 1-4-1.51 13.76 13.76 0 0 1-3.49-2.13 9.59 9.59 0 0 1-2.46-3.15 10.24 10.24 0 0 1-.93-4.56 11 11 0 0 1 1-4.61 11.3 11.3 0 0 1 2.89-3.88 14.25 14.25 0 0 1 4.66-2.66 18.68 18.68 0 0 1 6.32-1 19.93 19.93 0 0 1 7.41 1.3 17.64 17.64 0 0 1 5.67 3.57zM281.49 132q-5 0-7.61-2.77t-2.67-8V95.71h-5a1.66 1.66 0 0 1-1.12-.39 1.54 1.54 0 0 1-.45-1.22v-2.93l6.85-.87 1.69-12.92a1.6 1.6 0 0 1 .54-1 1.71 1.71 0 0 1 1.16-.39h3.71v14.4h12v5.33h-12v25.1a5.35 5.35 0 0 0 1.28 3.92 4.47 4.47 0 0 0 3.3 1.28 5.72 5.72 0 0 0 2-.31 8.44 8.44 0 0 0 1.47-.68c.41-.25.76-.48 1.05-.68a1.37 1.37 0 0 1 .77-.31 1.26 1.26 0 0 1 1 .7l2.15 3.51A13.91 13.91 0 0 1 287 131a15.64 15.64 0 0 1-5.53 1M311.25 126.88a14.5 14.5 0 0 0 3.55-.4 13.94 13.94 0 0 0 3-1.11 16.12 16.12 0 0 0 2.72-1.75 23.16 23.16 0 0 0 2.54-2.36v-8.62a49.32 49.32 0 0 0-8.63.64 24.39 24.39 0 0 0-5.78 1.68 8.13 8.13 0 0 0-3.24 2.45 5.31 5.31 0 0 0-1 3.16 7 7 0 0 0 .54 2.86 5.5 5.5 0 0 0 1.44 2 5.6 5.6 0 0 0 2.15 1.12 9.59 9.59 0 0 0 2.68.36m19.08 4.5h-3.27a3.89 3.89 0 0 1-1.73-.33 1.84 1.84 0 0 1-.87-1.41l-.82-3.88c-1.1 1-2.18 1.88-3.22 2.66a18.68 18.68 0 0 1-3.3 2 17.25 17.25 0 0 1-3.7 1.21 20.85 20.85 0 0 1-4.35.42 14.73 14.73 0 0 1-4.57-.69 10.4 10.4 0 0 1-3.69-2 9.67 9.67 0 0 1-2.5-3.46 12.08 12.08 0 0 1-.93-5 9.24 9.24 0 0 1 1.37-4.78 12 12 0 0 1 4.39-4.08 28.45 28.45 0 0 1 7.95-2.92 54 54 0 0 1 12-1.14v-3.28q0-4.91-2.08-7.42a7.58 7.58 0 0 0-6.17-2.51 13.16 13.16 0 0 0-4.52.68 16.83 16.83 0 0 0-3.14 1.52c-.9.56-1.67 1.07-2.32 1.53a3.33 3.33 0 0 1-1.92.68 2.24 2.24 0 0 1-1.3-.39 3.05 3.05 0 0 1-.88-1l-1.32-2.35a23.8 23.8 0 0 1 7.47-5 23.09 23.09 0 0 1 8.87-1.65A15.89 15.89 0 0 1 322 90a12.91 12.91 0 0 1 4.58 3.22 13.73 13.73 0 0 1 2.81 5 20.87 20.87 0 0 1 .95 6.44zM370 97a3.23 3.23 0 0 1-.67.7 1.5 1.5 0 0 1-.94.25 2.35 2.35 0 0 1-1.35-.52 19.87 19.87 0 0 0-1.83-1.13 16.38 16.38 0 0 0-2.71-1.14 12.9 12.9 0 0 0-3.9-.51 12.72 12.72 0 0 0-5.41 1.09 10.52 10.52 0 0 0-3.94 3.16 14.2 14.2 0 0 0-2.39 5 24.73 24.73 0 0 0-.81 6.57 23.92 23.92 0 0 0 .87 6.75 14.6 14.6 0 0 0 2.44 5 10.36 10.36 0 0 0 3.81 3.06 11.84 11.84 0 0 0 5.06 1.05 12.87 12.87 0 0 0 4.42-.64 13.41 13.41 0 0 0 2.89-1.43 20.81 20.81 0 0 0 1.9-1.42 2.26 2.26 0 0 1 1.48-.64 1.56 1.56 0 0 1 1.41.7l2.06 2.68a16 16 0 0 1-6.81 4.9A24.21 24.21 0 0 1 357 132a18.38 18.38 0 0 1-7.29-1.44 16.58 16.58 0 0 1-5.84-4.19 19.9 19.9 0 0 1-3.9-6.75 27.12 27.12 0 0 1-1.42-9.12 27.44 27.44 0 0 1 1.3-8.63A19.51 19.51 0 0 1 343.6 95a17.15 17.15 0 0 1 6.17-4.48 20.83 20.83 0 0 1 8.42-1.61 19.85 19.85 0 0 1 7.81 1.41 18.55 18.55 0 0 1 6 4zM387.66 70.57v35.79h1.9a3.5 3.5 0 0 0 1.36-.23 3.75 3.75 0 0 0 1.2-.93L405.33 91a7.39 7.39 0 0 1 1.24-1 3 3 0 0 1 1.65-.41h6.69L399.51 106a14.09 14.09 0 0 1-1.14 1.24 7.48 7.48 0 0 1-1.25 1 7.64 7.64 0 0 1 1.34 1.13 10.94 10.94 0 0 1 1.13 1.47l16.35 20.64h-6.61a3.19 3.19 0 0 1-1.54-.35 4 4 0 0 1-1.22-1.1l-13.75-17.23a3 3 0 0 0-1.24-1.13 4.84 4.84 0 0 0-1.85-.27h-2.07v20h-7.39V70.57z"/><path class="cls-2" d="M154.69 101.42a19.31 19.31 0 0 0-4.06-6.8 17.82 17.82 0 0 0-6.35-4.3 24 24 0 0 0-8.44-1.51 22.25 22.25 0 0 0-9.51 2.28c-3.28 1.64-5.87 4.14-15.81 17.08s-11.52 18.1-20.13 18.1c-4.06 0-7.42-1.76-9-3.77-2.64-3.33-3.33-7.51-3.33-12 0-6.41 1.65-9.69 3.37-12 1.92-2.59 5.31-3.83 9.31-3.83a10.83 10.83 0 0 1 8.64 3.92 15.5 15.5 0 0 1 2.54 5.23l6.17-4.23a19 19 0 0 0-3.09-4.73 17 17 0 0 0-6.09-4.3 21.41 21.41 0 0 0-8.2-1.76 22 22 0 0 0-8.32 1.52 18.07 18.07 0 0 0-6.39 4.3 19.39 19.39 0 0 0-4.1 6.8 28.62 28.62 0 0 0 0 18 19.8 19.8 0 0 0 4.1 6.85 17.9 17.9 0 0 0 6.39 4.34 20.72 20.72 0 0 0 8.32 1.51c3.42 0 13-.42 23.26-16 11.74-17.87 15.47-21.37 21.9-21.37 5.28 0 8.21 2.09 9.84 4.46s2.7 7.23 2.7 11.76-.88 8.78-3.3 11.53-4.64 3.74-9.12 3.74a11 11 0 0 1-7.81-2.74c-2.55-2.16-3.06-4.55-3.86-7.18l-6 5a21.81 21.81 0 0 0 3.24 4.88 19.7 19.7 0 0 0 14.44 5.91 21.83 21.83 0 0 0 8.3-1.51 17.66 17.66 0 0 0 6.35-4.34 19.72 19.72 0 0 0 4.06-6.85 29 29 0 0 0 0-18M126.29 36c-.69.51-1.36 1-2 1.58l-.17.14-.07.06a37.44 37.44 0 0 0-10.82 15.8 37.2 37.2 0 0 0-10.82-15.8l-.07-.06-.16-.14c-.65-.55-1.32-1.07-2-1.58v-1c0-1.06 0-2.12.14-3.16a37.15 37.15 0 0 1 .94-5.71 36.56 36.56 0 0 1 11.71-19l.29-.28.3.28a36.63 36.63 0 0 1 11.71 19 37.15 37.15 0 0 1 .94 5.71c.09 1 .13 2.1.13 3.16v1m-12.91 27l.08-.34a36.85 36.85 0 0 1 9.68-17.09c.66-.66 1.37-1.31 2.1-1.94a36.74 36.74 0 0 1-11.9 19.41m-12.23-19.38c.73.63 1.43 1.28 2.1 1.94A36.85 36.85 0 0 1 113 62.73l.08.34a36.76 36.76 0 0 1-11.91-19.41m52-8.58v-.28a37 37 0 0 0-.93-5.62v-.09h-.09a36.46 36.46 0 0 0-6.61-.1h-.28a37.64 37.64 0 0 0-14 4 37.63 37.63 0 0 0-.1-4.38v-.3a36.59 36.59 0 0 0-.91-5.41v-.1l-.05-.19a37.41 37.41 0 0 0-11.7-18.94l-.14-.12-.08-.06A35.63 35.63 0 0 0 113.3.05h-.08l-.07.05a35.63 35.63 0 0 0-4.79 3.47l-.07.06-.14.12a37.46 37.46 0 0 0-11.71 18.9V22.94a36.59 36.59 0 0 0-.91 5.41v.3a35.54 35.54 0 0 0-.1 4.38 37.64 37.64 0 0 0-14-4H81a36.44 36.44 0 0 0-6.61.1h-.1v.09a35.81 35.81 0 0 0-.93 5.62v.28A37.07 37.07 0 0 0 106.38 75v-1.76A36.8 36.8 0 0 1 80.29 35a36.72 36.72 0 0 1 16 5.15 37 37 0 0 0 16.67 23.19l.28.14.29-.14a37.06 37.06 0 0 0 16.67-23.19 36.72 36.72 0 0 1 16-5.15 36.79 36.79 0 0 1-26.08 38.25V75a37.07 37.07 0 0 0 33.06-39.87"/></svg>