<svg xmlns="http://www.w3.org/2000/svg" width="169.333" height="53.77" viewBox="0 0 169.333 53.77">
  <g id="Group_1" data-name="Group 1" transform="translate(0 -0.05)">
    <path id="Path_1" data-name="Path 1" d="M3.257,85.326V93.7H8.468a7.833,7.833,0,0,0,2.394-.322,4.48,4.48,0,0,0,1.628-.9,3.511,3.511,0,0,0,.953-1.38,4.967,4.967,0,0,0,.3-1.755A3.62,3.62,0,0,0,12.425,86.4a6.235,6.235,0,0,0-3.994-1.083Zm0-2.321H7.564a8.3,8.3,0,0,0,2.386-.293,4.882,4.882,0,0,0,1.673-.839,3.3,3.3,0,0,0,1-1.311,4.324,4.324,0,0,0,.318-1.673,3.655,3.655,0,0,0-1.274-3.11,6.447,6.447,0,0,0-3.969-.989H3.257ZM0,96.3V72.217H7.678a14.8,14.8,0,0,1,3.827.436A7.494,7.494,0,0,1,14.143,73.9a4.886,4.886,0,0,1,1.527,1.974,6.611,6.611,0,0,1,.5,2.63,5.384,5.384,0,0,1-.289,1.714,4.99,4.99,0,0,1-.814,1.531,6.067,6.067,0,0,1-1.413,1.258,7.877,7.877,0,0,1-2,.928,7.451,7.451,0,0,1,3.982,1.9,4.971,4.971,0,0,1,1.343,3.627,6.79,6.79,0,0,1-.562,2.793,5.938,5.938,0,0,1-1.649,2.166,7.6,7.6,0,0,1-2.654,1.4,11.937,11.937,0,0,1-3.587.5Z" transform="translate(0 -42.786)" fill="#fff"/>
    <rect id="Rectangle_1" data-name="Rectangle 1" width="2.992" height="24.756" transform="translate(21.613 28.759)" fill="#fff"/>
    <path id="Path_2" data-name="Path 2" d="M165.2,106.188V89.163h1.783a.761.761,0,0,1,.814.623l.22,1.746a8.828,8.828,0,0,1,2.109-1.9,4.96,4.96,0,0,1,2.728-.737,4.031,4.031,0,0,1,2.8.957,5.388,5.388,0,0,1,1.539,2.589,5.259,5.259,0,0,1,.932-1.6,5.44,5.44,0,0,1,1.3-1.111,5.573,5.573,0,0,1,1.535-.639,6.886,6.886,0,0,1,1.657-.2,6.306,6.306,0,0,1,2.394.407,4.743,4.743,0,0,1,1.763,1.262,5.526,5.526,0,0,1,1.115,2.036,8.885,8.885,0,0,1,.387,2.748v10.841h-2.988V95.347a4.591,4.591,0,0,0-.875-3.033,3.138,3.138,0,0,0-2.536-1.034,3.777,3.777,0,0,0-1.4.261,3.347,3.347,0,0,0-1.168.765,3.524,3.524,0,0,0-.814,1.266,4.956,4.956,0,0,0-.293,1.775v10.841H175.2V95.347a4.836,4.836,0,0,0-.814-3.057,2.931,2.931,0,0,0-2.406-1.01,3.782,3.782,0,0,0-2.036.6,6.689,6.689,0,0,0-1.742,1.628V106.2Z" transform="translate(-97.945 -52.672)" fill="#fff"/>
    <path id="Path_3" data-name="Path 3" d="M240.709,91.942a.66.66,0,0,1-.623.37,1.169,1.169,0,0,1-.57-.183c-.212-.126-.472-.261-.782-.407a7.222,7.222,0,0,0-1.1-.407,5.373,5.373,0,0,0-1.514-.191,4.535,4.535,0,0,0-1.36.191,3.3,3.3,0,0,0-1.034.529,2.341,2.341,0,0,0-.655.782,2.107,2.107,0,0,0-.228.969,1.628,1.628,0,0,0,.379,1.091,3.254,3.254,0,0,0,1,.737,8.758,8.758,0,0,0,1.409.562c.529.163,1.071.338,1.628.521s1.1.407,1.628.615a5.988,5.988,0,0,1,1.413.839,3.664,3.664,0,0,1,1.376,2.992,5.56,5.56,0,0,1-.407,2.178,4.832,4.832,0,0,1-1.242,1.73,5.977,5.977,0,0,1-2.036,1.148,8.246,8.246,0,0,1-2.756.407,8.585,8.585,0,0,1-3.224-.582,8.138,8.138,0,0,1-2.443-1.486l.7-1.144a1.013,1.013,0,0,1,.322-.334.867.867,0,0,1,.489-.118,1.108,1.108,0,0,1,.635.236c.224.155.5.33.814.521a6.569,6.569,0,0,0,1.156.521,5.378,5.378,0,0,0,1.706.232,4.693,4.693,0,0,0,1.531-.224,3.275,3.275,0,0,0,1.091-.615,2.37,2.37,0,0,0,.647-.892,2.729,2.729,0,0,0,.212-1.075,1.782,1.782,0,0,0-.379-1.168,3.2,3.2,0,0,0-1-.79,8.032,8.032,0,0,0-1.417-.57c-.533-.163-1.079-.334-1.628-.513a17.312,17.312,0,0,1-1.628-.615,5.6,5.6,0,0,1-1.421-.867,3.908,3.908,0,0,1-1-1.282,4.168,4.168,0,0,1-.379-1.856,4.477,4.477,0,0,1,.407-1.877,4.6,4.6,0,0,1,1.177-1.58,5.8,5.8,0,0,1,1.9-1.083,7.6,7.6,0,0,1,2.573-.407,8.113,8.113,0,0,1,3.017.529,7.186,7.186,0,0,1,2.308,1.453Z" transform="translate(-136.11 -52.647)" fill="#fff"/>
    <path id="Path_4" data-name="Path 4" d="M271.5,98.791a4.054,4.054,0,0,1-3.1-1.128,4.656,4.656,0,0,1-1.087-3.257V84.017h-2.036a.678.678,0,0,1-.456-.159.627.627,0,0,1-.183-.5V82.169l2.789-.354.688-5.26a.653.653,0,0,1,.22-.407.694.694,0,0,1,.472-.159h1.51v5.862H275.2v2.17h-4.885V94.24a2.179,2.179,0,0,0,.521,1.6,1.819,1.819,0,0,0,1.343.521,2.335,2.335,0,0,0,.814-.126,3.437,3.437,0,0,0,.6-.277c.167-.1.309-.2.427-.277a.557.557,0,0,1,.313-.126.514.514,0,0,1,.407.285l.875,1.429a5.667,5.667,0,0,1-1.877,1.12,6.374,6.374,0,0,1-2.251.407" transform="translate(-156.899 -45.023)" fill="#fff"/>
    <path id="Path_5" data-name="Path 5" d="M303.006,104.313a5.9,5.9,0,0,0,1.445-.163,5.681,5.681,0,0,0,1.221-.452,6.576,6.576,0,0,0,1.107-.712,9.455,9.455,0,0,0,1.034-.961V98.516a20.066,20.066,0,0,0-3.513.261,9.915,9.915,0,0,0-2.353.684,3.306,3.306,0,0,0-1.319,1,2.163,2.163,0,0,0-.407,1.286,2.855,2.855,0,0,0,.22,1.164,2.242,2.242,0,0,0,.586.814,2.278,2.278,0,0,0,.875.456,3.906,3.906,0,0,0,1.091.147m7.768,1.832H309.43a1.581,1.581,0,0,1-.7-.134.749.749,0,0,1-.354-.574l-.334-1.58c-.448.407-.888.765-1.311,1.083a7.6,7.6,0,0,1-1.343.814,7.007,7.007,0,0,1-1.506.493,8.48,8.48,0,0,1-1.771.171,6,6,0,0,1-1.86-.281,4.231,4.231,0,0,1-1.5-.814,3.935,3.935,0,0,1-1.018-1.409,4.921,4.921,0,0,1-.379-2.036,3.759,3.759,0,0,1,.558-1.946,4.888,4.888,0,0,1,1.787-1.661,11.571,11.571,0,0,1,3.237-1.189,21.976,21.976,0,0,1,4.885-.464V95.3a4.639,4.639,0,0,0-.847-3.021,3.086,3.086,0,0,0-2.512-1.022,5.35,5.35,0,0,0-1.84.277,6.867,6.867,0,0,0-1.278.619c-.366.228-.68.436-.945.623a1.356,1.356,0,0,1-.782.277.912.912,0,0,1-.529-.159,1.242,1.242,0,0,1-.358-.407l-.537-.957a9.69,9.69,0,0,1,3.041-2.036,9.4,9.4,0,0,1,3.611-.672,6.465,6.465,0,0,1,2.544.48,5.256,5.256,0,0,1,1.865,1.311,5.588,5.588,0,0,1,1.144,2.036,8.493,8.493,0,0,1,.387,2.622Z" transform="translate(-176.293 -52.63)" fill="#fff"/>
    <path id="Path_6" data-name="Path 6" d="M351.351,92.2a1.314,1.314,0,0,1-.273.285.613.613,0,0,1-.383.1.956.956,0,0,1-.55-.212,8.091,8.091,0,0,0-.745-.46,6.676,6.676,0,0,0-1.1-.464,5.261,5.261,0,0,0-1.588-.208,5.178,5.178,0,0,0-2.2.444,4.283,4.283,0,0,0-1.6,1.286,5.789,5.789,0,0,0-.973,2.036,10.066,10.066,0,0,0-.33,2.675,9.744,9.744,0,0,0,.354,2.748,5.942,5.942,0,0,0,.993,2.036,4.22,4.22,0,0,0,1.551,1.246,4.822,4.822,0,0,0,2.06.427,5.242,5.242,0,0,0,1.8-.261,5.469,5.469,0,0,0,1.177-.582,8.488,8.488,0,0,0,.773-.578.92.92,0,0,1,.6-.261.635.635,0,0,1,.574.285l.839,1.091a6.517,6.517,0,0,1-2.772,1.995,9.865,9.865,0,0,1-3.493.619,7.487,7.487,0,0,1-2.968-.586,6.749,6.749,0,0,1-2.378-1.706,8.1,8.1,0,0,1-1.588-2.748,11.044,11.044,0,0,1-.578-3.713,11.169,11.169,0,0,1,.529-3.513,7.942,7.942,0,0,1,1.527-2.8,6.979,6.979,0,0,1,2.512-1.824,8.478,8.478,0,0,1,3.428-.655,8.077,8.077,0,0,1,3.18.574,7.553,7.553,0,0,1,2.443,1.628Z" transform="translate(-200.721 -52.681)" fill="#fff"/>
    <path id="Path_7" data-name="Path 7" d="M383.279,70.57V85.14h.774a1.429,1.429,0,0,0,.554-.094,1.524,1.524,0,0,0,.489-.379l5.378-5.781a3.017,3.017,0,0,1,.5-.407,1.222,1.222,0,0,1,.672-.167h2.724L388.1,84.994a5.741,5.741,0,0,1-.464.5,3.061,3.061,0,0,1-.509.407,3.1,3.1,0,0,1,.546.46,4.427,4.427,0,0,1,.46.6l6.656,8.4H392.1a1.3,1.3,0,0,1-.627-.142,1.628,1.628,0,0,1-.5-.448l-5.6-7.014a1.221,1.221,0,0,0-.5-.46,1.974,1.974,0,0,0-.753-.11h-.843v8.142H380.27V70.57Z" transform="translate(-225.458 -41.811)" fill="#fff"/>
    <path id="Path_8" data-name="Path 8" d="M104.744,93.937a7.859,7.859,0,0,0-1.653-2.768,7.254,7.254,0,0,0-2.585-1.751A9.773,9.773,0,0,0,97.07,88.8a9.056,9.056,0,0,0-3.872.928c-1.335.668-2.39,1.685-6.436,6.953s-4.69,7.369-8.2,7.369a4.753,4.753,0,0,1-3.664-1.535,7.588,7.588,0,0,1-1.356-4.885,7.521,7.521,0,0,1,1.372-4.885,4.54,4.54,0,0,1,3.79-1.559,4.408,4.408,0,0,1,3.517,1.6,6.31,6.31,0,0,1,1.034,2.129l2.512-1.722a7.74,7.74,0,0,0-1.258-1.926,6.923,6.923,0,0,0-2.479-1.751A8.71,8.71,0,0,0,78.7,88.8a8.958,8.958,0,0,0-3.387.619,7.353,7.353,0,0,0-2.6,1.751,7.9,7.9,0,0,0-1.669,2.768,11.651,11.651,0,0,0,0,7.328,8.055,8.055,0,0,0,1.669,2.789,7.291,7.291,0,0,0,2.6,1.767,8.434,8.434,0,0,0,3.387.615c1.392,0,5.292-.171,9.469-6.514,4.779-7.275,6.3-8.7,8.916-8.7a4.5,4.5,0,0,1,4.006,1.816,9.585,9.585,0,0,1,1.1,4.788,7.117,7.117,0,0,1-1.343,4.694,4.2,4.2,0,0,1-3.713,1.523,4.479,4.479,0,0,1-3.18-1.115A5.24,5.24,0,0,1,92.38,100l-2.443,2.036a8.881,8.881,0,0,0,1.319,1.987,8.021,8.021,0,0,0,5.879,2.406,8.889,8.889,0,0,0,3.379-.615,7.189,7.189,0,0,0,2.585-1.767,8.023,8.023,0,0,0,1.653-2.789,11.807,11.807,0,0,0,0-7.328" transform="translate(-41.768 -52.618)" fill="#f58767"/>
    <path id="Path_9" data-name="Path 9" d="M94.834,14.686a10.267,10.267,0,0,0-.814.643h0l-.069.057h0l-.028.024h0a15.243,15.243,0,0,0-4.4,6.432,15.142,15.142,0,0,0-4.4-6.432h0l-.029-.024h0l-.065-.057h0c-.265-.224-.537-.436-.814-.643v-.407a9.658,9.658,0,0,1,.057-1.286h0a15.122,15.122,0,0,1,.383-2.325,14.886,14.886,0,0,1,4.767-7.735l.118-.114.122.114a14.912,14.912,0,0,1,4.767,7.735,15.12,15.12,0,0,1,.383,2.325h0c.037.407.053.855.053,1.286v.407M89.6,25.678l.033-.138a15,15,0,0,1,3.941-6.958c.269-.269.558-.533.855-.79h0a14.956,14.956,0,0,1-4.845,7.9M84.6,17.8h0c.3.256.582.521.855.79a15,15,0,0,1,3.965,6.974l.033.138a14.962,14.962,0,0,1-4.849-7.9m21.17-3.493h0V14.2h0a15.061,15.061,0,0,0-.379-2.288v-.037h-.037a14.855,14.855,0,0,0-2.691-.041h-.114a15.318,15.318,0,0,0-5.7,1.628,15.33,15.33,0,0,0-.041-1.783h0v-.033h0v-.09h0a14.932,14.932,0,0,0-.37-2.2h0V9.312h0l-.02-.077h0a15.231,15.231,0,0,0-4.763-7.711h0l-.057-.049h0l-.033-.024h0A14.468,14.468,0,0,0,89.546.05h-.033l-.028.02a14.532,14.532,0,0,0-1.95,1.413h0l-.028.024h0l-.057.049h0a15.252,15.252,0,0,0-4.767,7.694h0v.077h0v.041h0a14.932,14.932,0,0,0-.37,2.2h0v.09h0v.033h0a14.479,14.479,0,0,0-.041,1.783,15.318,15.318,0,0,0-5.7-1.628H76.4a14.819,14.819,0,0,0-2.691.041h-.041v.037a14.556,14.556,0,0,0-.379,2.288h0v.114h0A15.091,15.091,0,0,0,86.729,30.563v-.717A14.982,14.982,0,0,1,76.107,14.278a14.949,14.949,0,0,1,6.514,2.1,15.063,15.063,0,0,0,6.787,9.441l.114.057.118-.057a15.086,15.086,0,0,0,6.787-9.441,14.949,14.949,0,0,1,6.514-2.1A14.978,14.978,0,0,1,92.322,29.85v.712a15.092,15.092,0,0,0,13.459-16.231" transform="translate(-43.42)" fill="#f58767"/>
  </g>
</svg>
